<svg xmlns="http://www.w3.org/2000/svg" xmlns:xlink="http://www.w3.org/1999/xlink" viewBox="0 0 68.42 90.92">
  <defs>
    <style>
      .cls-1, .cls-2, .cls-3, .cls-4, .cls-5, .cls-6, .cls-7, .cls-8, .cls-9, .cls-10, .cls-11, .cls-12, .cls-13, .cls-14, .cls-15, .cls-16, .cls-17, .cls-18, .cls-19, .cls-20, .cls-21, .cls-22, .cls-23, .cls-24, .cls-25, .cls-26, cls-27 {
        fill: #F6921E !important;
        mix-blend-mode: multiply;
	  }      
	  .cls-1 {
        isolation: isolate;
      }

      .cls-2 {
        fill: url(#linear-gradient);
      }

      .cls-11, .cls-12, .cls-13, .cls-14, .cls-18, .cls-21, .cls-22, .cls-23, .cls-3, .cls-4, .cls-5, .cls-6, .cls-7 {
        mix-blend-mode: multiply;
      }

      .cls-3 {
        fill: url(#linear-gradient-2);
      }

      .cls-4 {
        fill: url(#linear-gradient-3);
      }

      .cls-5 {
        fill: url(#linear-gradient-4);
      }

      .cls-6 {
        fill: url(#linear-gradient-5);
      }

      .cls-7 {
        fill: url(#linear-gradient-6);
      }

      .cls-16, .cls-17, .cls-19, .cls-8, .cls-9 {
        mix-blend-mode: screen;
      }

      .cls-8 {
        fill: url(#linear-gradient-7);
      }

      .cls-9 {
        opacity: 0.8;
      }

      .cls-10 {
        fill: url(#linear-gradient-8);
      }

      .cls-11 {
        fill: url(#linear-gradient-9);
      }

      .cls-12 {
        fill: url(#linear-gradient-10);
      }

      .cls-13 {
        fill: url(#linear-gradient-11);
      }

      .cls-14 {
        fill: url(#linear-gradient-12);
      }

      .cls-15 {
        fill: url(#linear-gradient-13);
      }

      .cls-16 {
        fill: url(#linear-gradient-14);
      }

      .cls-17 {
        fill: url(#linear-gradient-15);
      }

      .cls-18 {
        fill: url(#linear-gradient-16);
      }

      .cls-20 {
        fill: url(#linear-gradient-17);
      }

      .cls-21 {
        fill: url(#linear-gradient-18);
      }

      .cls-22 {
        fill: url(#linear-gradient-19);
      }

      .cls-23 {
        fill: url(#linear-gradient-20);
      }
    </style>
    <linearGradient id="linear-gradient" y1="45.46" x2="68.42" y2="45.46" gradientUnits="userSpaceOnUse">
      <stop offset="0" stop-color="#003db8"/>
      <stop offset="0.02" stop-color="#0046be"/>
      <stop offset="0.08" stop-color="#0060d1"/>
      <stop offset="0.16" stop-color="#0074e0"/>
      <stop offset="0.24" stop-color="#0082ea"/>
      <stop offset="0.34" stop-color="#008af0"/>
      <stop offset="0.5" stop-color="#008df2"/>
      <stop offset="0.66" stop-color="#008af0"/>
      <stop offset="0.76" stop-color="#0082ea"/>
      <stop offset="0.84" stop-color="#0074e0"/>
      <stop offset="0.92" stop-color="#0060d1"/>
      <stop offset="0.98" stop-color="#0046be"/>
      <stop offset="1" stop-color="#003db8"/>
    </linearGradient>
    <linearGradient id="linear-gradient-2" x1="22.39" y1="40.51" x2="8.86" y2="19.44" gradientUnits="userSpaceOnUse">
      <stop offset="0" stop-color="#fff"/>
      <stop offset="1" stop-color="#66c7ff"/>
    </linearGradient>
    <linearGradient id="linear-gradient-3" x1="27.85" y1="68.93" x2="40.52" y2="42.95" xlink:href="#linear-gradient-2"/>
    <linearGradient id="linear-gradient-4" x1="21.24" y1="19.89" x2="17.96" y2="4.92" xlink:href="#linear-gradient-2"/>
    <linearGradient id="linear-gradient-5" x1="21.85" y1="76.22" x2="18.03" y2="81.85" xlink:href="#linear-gradient-2"/>
    <linearGradient id="linear-gradient-6" x1="30.77" y1="82.38" x2="26.38" y2="88.85" xlink:href="#linear-gradient-2"/>
    <linearGradient id="linear-gradient-7" x1="14.24" y1="20.52" x2="22.42" y2="3.32" gradientUnits="userSpaceOnUse">
      <stop offset="0"/>
      <stop offset="0.06" stop-color="#152834"/>
      <stop offset="0.12" stop-color="#2a5269"/>
      <stop offset="0.18" stop-color="#3c7697"/>
      <stop offset="0.25" stop-color="#4b93bc"/>
      <stop offset="0.31" stop-color="#57aada"/>
      <stop offset="0.38" stop-color="#5fbaee"/>
      <stop offset="0.44" stop-color="#64c4fb"/>
      <stop offset="0.5" stop-color="#66c7ff"/>
      <stop offset="0.56" stop-color="#64c4fb"/>
      <stop offset="0.62" stop-color="#5fbaee"/>
      <stop offset="0.69" stop-color="#57aada"/>
      <stop offset="0.75" stop-color="#4b93bc"/>
      <stop offset="0.82" stop-color="#3c7697"/>
      <stop offset="0.88" stop-color="#2a5269"/>
      <stop offset="0.94" stop-color="#152834"/>
      <stop offset="1"/>
    </linearGradient>
    <linearGradient id="linear-gradient-8" x1="2" y1="40.44" x2="33.1" y2="19.29" xlink:href="#linear-gradient-7"/>
    <linearGradient id="linear-gradient-9" x1="50.54" y1="2.16" x2="43.42" y2="12.75" gradientUnits="userSpaceOnUse">
      <stop offset="0" stop-color="#66c7ff"/>
      <stop offset="1" stop-color="#fff"/>
    </linearGradient>
    <linearGradient id="linear-gradient-10" x1="61.52" y1="11.04" x2="57.08" y2="19.78" xlink:href="#linear-gradient-9"/>
    <linearGradient id="linear-gradient-11" x1="50.4" y1="2.52" x2="51.42" y2="1.13" xlink:href="#linear-gradient-9"/>
    <linearGradient id="linear-gradient-12" x1="60.37" y1="10.87" x2="61.06" y2="8.74" xlink:href="#linear-gradient-9"/>
    <linearGradient id="linear-gradient-13" x1="33.58" y1="9.78" x2="48.33" y2="9.78" xlink:href="#linear-gradient-7"/>
    <linearGradient id="linear-gradient-14" x1="35.85" y1="18.96" x2="57.72" y2="18.96" xlink:href="#linear-gradient-7"/>
    <linearGradient id="linear-gradient-15" x1="36.1" y1="40.21" x2="19.03" y2="-4.95" gradientUnits="userSpaceOnUse">
      <stop offset="0"/>
      <stop offset="1" stop-color="#66c7ff"/>
    </linearGradient>
    <linearGradient id="linear-gradient-16" x1="32.17" y1="64.63" x2="64.08" y2="64.63" gradientUnits="userSpaceOnUse">
      <stop offset="0" stop-color="#fff"/>
      <stop offset="0.5" stop-color="#66c7ff"/>
      <stop offset="1" stop-color="#fff"/>
    </linearGradient>
    <linearGradient id="linear-gradient-17" x1="51" y1="64.4" x2="73.38" y2="99.22" gradientTransform="translate(-17.03 -47.73) rotate(19.56)" xlink:href="#linear-gradient-7"/>
    <linearGradient id="linear-gradient-18" x1="17" y1="81.81" x2="15.68" y2="84.43" xlink:href="#linear-gradient-9"/>
    <linearGradient id="linear-gradient-19" x1="27.96" y1="87.63" x2="26.39" y2="90.26" xlink:href="#linear-gradient-9"/>
    <linearGradient id="linear-gradient-20" x1="21.35" y1="3.68" x2="20.62" y2="-0.45" xlink:href="#linear-gradient-9"/>
  </defs>
  <title>Middel 4</title>
  <g class="cls-1">
    <g id="Laag_2" data-name="Laag 2">
      <g id="Internal_Organs" data-name="Internal Organs">
        <g id="Heart">
          <path id="Heart-2" data-name="Heart" class="cls-2" d="M66.12,31.54a7,7,0,0,0-.71-4.62,3.48,3.48,0,0,0-3.06-1.83c-1.75-3.21-2.58-6.74.3-13.26C63.49,10,58.92,8.21,58,10c-1.53,3.06-5.31,6.8-7.47,6.83-.38-1.42-1-2.8-1.42-4.21-.86-2.69.8-5,3.24-8.59,1.16-1.71-2.78-4.41-4.09-2.85-2,2.37-6.56,5.46-8.84,6.92s-5.1,3.52-7.95,3.47A87.31,87.31,0,0,0,27.3,1.3C26-1,15.48,0,15.09,2.55A100.71,100.71,0,0,1,11.55,17.7C4.29,18.84-5.7,35.55,4.05,49.18c-.39,3.58-.25,4.31.82,7.88,1.91,6.34,7.74,10.81,13.19,15.59.08,2.53-1.12,4.83-3.25,8.18-1.11,1.74,2.92,4.31,4.18,2.72S24.42,78,26.3,79.37c2,1.47-.15,6-1.43,8.71C24,89.94,28.29,92,29.35,90.26a16.56,16.56,0,0,1,6.24-5.76c4.9,1.75,10,1.82,14.82-1.51,10.28-7,14.62-21.9,17.09-33.37C68.88,43.2,68.91,37.61,66.12,31.54Z"/>
          <path class="cls-3" d="M34.58,22.49c-4.85-4.84-15.48-6.79-23.9-4.57-7.14,2.24-16,18.17-6.63,31.26,4.3-.57,11.13-4.28,18.84-7.19C34.9,37.44,39.45,27.37,34.58,22.49Z"/>
          <path class="cls-4" d="M21.43,43.41c-.94-.43-2.89,2.44-2.06,3.05A53.16,53.16,0,0,0,25,50.17a55,55,0,0,0-4.9,5.18c-.65.8,1.91,3.12,2.73,2.49a58.44,58.44,0,0,1,7.55-5.12,28.59,28.59,0,0,0,4.45,1.33c.78,5.93,5.1,12.58,8,14.56.84.59,3-2.16,2.25-2.92-2.1-2.26-4.58-9.55-2.29-13.3,1.58-2.58,17.57-12.19,23.36-20.85l0,0A6.85,6.85,0,0,0,65.43,27a3.5,3.5,0,0,0-3.06-1.83C58.78,36.25,44.34,44.3,38,47,33.66,48.78,24.76,44.92,21.43,43.41Z"/>
          <path class="cls-5" d="M34.34,29.19s-1-12.47-2.85-17.6A87.31,87.31,0,0,0,27.3,1.3C26-1,15.48,0,15.09,2.55A100.71,100.71,0,0,1,11.55,17.7,31,31,0,0,0,11,28.86Z"/>
          <path class="cls-6" d="M23,74.33c-2.73-2.36-5.17-1.89-5.17-1.89l.23.21c.08,2.53-1.12,4.83-3.25,8.18-1.11,1.74,2.92,4.31,4.18,2.72S24.42,78,26.3,79.37A10.29,10.29,0,0,0,23,74.33Z"/>
          <path class="cls-7" d="M32.56,80.49a6.78,6.78,0,0,0-6.26-1.12h0c2,1.47-.15,6-1.43,8.71C24,89.94,28.29,92,29.35,90.26a16.56,16.56,0,0,1,6.24-5.76l.21.07S35.27,82.84,32.56,80.49Z"/>
          <path class="cls-8" d="M18.27,17c.37-3.36.56-7.94,1.2-9.16.72-1.4,3.34-1.54,6.31-3.84-3.74.9-8-.1-8.86,3.24-.5,2-1.45,6.24-2.24,9.94A30.72,30.72,0,0,1,18.27,17Z"/>
          <g class="cls-9">
            <path class="cls-10" d="M8.44,22.8c6.65-7.27,21.39-4,27.22,3-5.81-3.69-19.78-4.71-23.88.21-6.34,7.62-7.41,15.1-3.62,23.83C1.76,42.88-.27,32.32,8.44,22.8Z"/>
          </g>
          <path class="cls-11" d="M50.55,16.85c-.38-1.42-1-2.8-1.42-4.21-.86-2.69.8-5,3.24-8.59,1.16-1.71-2.78-4.41-4.09-2.85-2,2.37-6.56,5.46-8.84,6.92a33.93,33.93,0,0,1-4.63,2.71h0C39,19.85,50.55,16.85,50.55,16.85Z"/>
          <path class="cls-12" d="M54.67,22.86a23.12,23.12,0,0,0,7.7,2.27l0,0h-.06c-1.75-3.21-2.58-6.74.3-13.26C63.49,10,58.92,8.21,58,10c-1.53,3.06-5.31,6.8-7.47,6.83C50.55,16.85,51.29,21,54.67,22.86Z"/>
          <path class="cls-13" d="M50.25,3.07A6.11,6.11,0,0,0,52.39,4c1-1.68-2.68-4.24-4-2.87A5.69,5.69,0,0,0,50.25,3.07Z"/>
          <path class="cls-14" d="M58.1,9.91a5.77,5.77,0,0,0,2.28,1.35,6.2,6.2,0,0,0,2.33.35C63.11,9.86,59.1,8.36,58.1,9.91Z"/>
          <g class="cls-9">
            <path class="cls-15" d="M42.55,12.25a14.12,14.12,0,0,1-9,2.33,50,50,0,0,1,7-5.47A56.77,56.77,0,0,1,48.33,5C47.08,8,45.84,10.17,42.55,12.25Z"/>
          </g>
          <path class="cls-16" d="M48.21,22.87c-5.43.9-8.53-.47-12.36-2.46,4.32.28,7.22.53,11.88-.3a15.66,15.66,0,0,0,10-5.34A11.21,11.21,0,0,1,48.21,22.87Z"/>
          <path class="cls-17" d="M66.12,31.54a7,7,0,0,0-.71-4.62,3.48,3.48,0,0,0-3.06-1.83c-1.75-3.21-2.58-6.74.3-13.26C63.49,10,58.92,8.21,58,10c-1.53,3.06-5.31,6.8-7.47,6.83-.38-1.42-1-2.8-1.42-4.21-.86-2.69.8-5,3.24-8.59,1.16-1.71-2.78-4.41-4.09-2.85-2,2.37-6.56,5.46-8.84,6.92s-5.1,3.52-7.95,3.47A87.31,87.31,0,0,0,27.3,1.3C26-1,15.48,0,15.09,2.55A100.71,100.71,0,0,1,11.55,17.7C4.29,18.84-5.7,35.55,4.05,49.18c-.39,3.58-.25,4.31.82,7.88a19.16,19.16,0,0,0,3.64,6.53c-4.68-5.73,1.76-23.17,21.17-28.94C48.47,29.07,68.53,36.75,68.26,45A24.82,24.82,0,0,0,66.12,31.54Z"/>
          <path class="cls-18" d="M56.69,72.44C50.57,82.32,40.53,86,32.17,80.94c9.59,1.67,15-2.43,20.63-11.07C58.6,61,60.38,54.75,64.08,46.06,63.25,55.4,63,62.32,56.69,72.44Z"/>
          <g class="cls-19">
            <path class="cls-20" d="M8.88,52.12c-3-10.12.1-16.56,4.3-23.58C10.85,36.38,9.36,42.4,12,51.25c2.58,8.64,6.61,13.61,12.66,18.92C17.29,66.33,11.91,62.25,8.88,52.12Z"/>
          </g>
          <path class="cls-21" d="M14.94,80.61a2.53,2.53,0,0,1-.13.22c-1,1.62,2.36,3.94,3.86,3a3.91,3.91,0,0,0-1.19-2.1A3.63,3.63,0,0,0,14.94,80.61Z"/>
          <path class="cls-22" d="M25.16,87.47c-.1.21-.2.41-.29.61-.84,1.76,3,3.7,4.28,2.42a3.93,3.93,0,0,0-1.17-2A3.37,3.37,0,0,0,25.16,87.47Z"/>
          <path class="cls-23" d="M27,1C24.91-.93,15.46.17,15.09,2.55c0,.09,0,.17,0,.26.86.08,1.76.12,2.69.12C21.8,2.93,25.3,2.13,27,1Z"/>
        </g>
      </g>
    </g>
  </g>
</svg>
