<svg xmlns="http://www.w3.org/2000/svg" xmlns:xlink="http://www.w3.org/1999/xlink" viewBox="0 0 40.39 66.89">
  <defs>
    <style>
      .cls-1, .cls-2, .cls-3, .cls-4, .cls-5, .cls-6 {
        fill: #aaaaaa !important;
        mix-blend-mode: multiply;
	  }      
	  .cls-1 {
        isolation: isolate;
      }

      .cls-2 {
        fill: url(#linear-gradient);
      }

      .cls-3, .cls-4, .cls-6 {
        mix-blend-mode: screen;
      }

      .cls-3 {
        fill: url(#linear-gradient-2);
      }

      .cls-4 {
        opacity: 0.5;
        fill: url(#linear-gradient-3);
      }

      .cls-5 {
        mix-blend-mode: multiply;
        fill: url(#linear-gradient-4);
      }

      .cls-6 {
        fill: url(#linear-gradient-5);
      }
    </style>
    <linearGradient id="linear-gradient" y1="33.45" x2="40.39" y2="33.45" gradientUnits="userSpaceOnUse">
      <stop offset="0" stop-color="#003db8"/>
      <stop offset="0.02" stop-color="#0046be"/>
      <stop offset="0.08" stop-color="#0060d1"/>
      <stop offset="0.16" stop-color="#0074e0"/>
      <stop offset="0.24" stop-color="#0082ea"/>
      <stop offset="0.34" stop-color="#008af0"/>
      <stop offset="0.5" stop-color="#008df2"/>
      <stop offset="0.66" stop-color="#008af0"/>
      <stop offset="0.76" stop-color="#0082ea"/>
      <stop offset="0.84" stop-color="#0074e0"/>
      <stop offset="0.92" stop-color="#0060d1"/>
      <stop offset="0.98" stop-color="#0046be"/>
      <stop offset="1" stop-color="#003db8"/>
    </linearGradient>
    <linearGradient id="linear-gradient-2" x1="16.49" y1="41" x2="31.24" y2="-22.37" gradientUnits="userSpaceOnUse">
      <stop offset="0"/>
      <stop offset="1" stop-color="#66c7ff"/>
    </linearGradient>
    <linearGradient id="linear-gradient-3" x1="12.5" y1="27.64" x2="12.89" y2="43.58" gradientUnits="userSpaceOnUse">
      <stop offset="0"/>
      <stop offset="0.06" stop-color="#152834"/>
      <stop offset="0.12" stop-color="#2a5269"/>
      <stop offset="0.18" stop-color="#3c7697"/>
      <stop offset="0.25" stop-color="#4b93bc"/>
      <stop offset="0.31" stop-color="#57aada"/>
      <stop offset="0.38" stop-color="#5fbaee"/>
      <stop offset="0.44" stop-color="#64c4fb"/>
      <stop offset="0.5" stop-color="#66c7ff"/>
      <stop offset="0.56" stop-color="#64c4fb"/>
      <stop offset="0.62" stop-color="#5fbaee"/>
      <stop offset="0.69" stop-color="#57aada"/>
      <stop offset="0.75" stop-color="#4b93bc"/>
      <stop offset="0.82" stop-color="#3c7697"/>
      <stop offset="0.88" stop-color="#2a5269"/>
      <stop offset="0.94" stop-color="#152834"/>
      <stop offset="1"/>
    </linearGradient>
    <linearGradient id="linear-gradient-4" x1="3.19" y1="56.98" x2="23.91" y2="63.36" gradientUnits="userSpaceOnUse">
      <stop offset="0" stop-color="#fff"/>
      <stop offset="0.5" stop-color="#66c7ff"/>
      <stop offset="1" stop-color="#fff"/>
    </linearGradient>
    <linearGradient id="linear-gradient-5" x1="1.97" y1="9.47" x2="40.97" y2="20.6" xlink:href="#linear-gradient-3"/>
  </defs>
  <title>Middel 7</title>
  <g class="cls-1">
    <g id="Laag_2" data-name="Laag 2">
      <g id="Internal_Organs" data-name="Internal Organs">
        <g>
          <path class="cls-2" d="M16,0C10.88.12,5.4,2.05,2.4,6.33-4.38,16,11,29.12,9.89,35.51,9.09,40-3,45.57.69,57.33a13.47,13.47,0,0,0,14.19,9.49c16-1.7,25.48-19.66,25.51-34.42C40.42,17.14,32.58-.36,16,0Z"/>
          <path class="cls-3" d="M34,49.54a37.57,37.57,0,0,1-.35,4.91A41.25,41.25,0,0,0,40.39,32.4C40.42,17.14,32.58-.36,16,0,10.88.12,5.4,2.05,2.4,6.33-.25,10.11.49,14.42,2.31,18.64a20.92,20.92,0,0,1,7.35-1.5C26.2,16.77,34,34.28,34,49.54Z"/>
          <path class="cls-4" d="M13.11,35.05c-.56-3.1-1.66-5.45-2.41-8.72C13,28.86,15,30.2,15.91,34.86c-.38,5.61-3.86,5.75-6.27,7.89C10.83,39.73,13.39,37.6,13.11,35.05Z"/>
          <path class="cls-5" d="M12.81,64.63c-6.18-.63-8.7-4.83-9-9.09C6.47,59,8.93,60.41,13,60.91a30.14,30.14,0,0,0,11.23-2.4C21.61,62,18.78,64.42,12.81,64.63Z"/>
          <path class="cls-6" d="M23.85,3.14C37.14,10.68,37.33,21.63,36.6,32,34.54,21.6,31.92,13,22.07,7.57,12.15,4.28.88,8.52,4.4,20.15c-3.13-4.41-3-11.42,1.88-14.78A17.81,17.81,0,0,1,23.85,3.14Z"/>
        </g>
      </g>
    </g>
  </g>
</svg>
