<svg xmlns="http://www.w3.org/2000/svg" xmlns:xlink="http://www.w3.org/1999/xlink" viewBox="0 0 343.51 766.62">
  <defs>
    <style>
	.cls-1 {
        isolation: isolate;
      }

      .cls-2 {
        fill: #ebebeb;
        mix-blend-mode: multiply;
      }

      .cls-10, .cls-11, .cls-12, .cls-13, .cls-14, .cls-15, .cls-16, .cls-17, .cls-18, .cls-19, .cls-20, .cls-21, .cls-22, .cls-23, .cls-24, .cls-25, .cls-26, .cls-27, .cls-28, .cls-29, .cls-3, .cls-30, .cls-31, .cls-4, .cls-5, .cls-6, .cls-7, .cls-8, .cls-9 {
        mix-blend-mode: screen;
      }

      .cls-3 {
        fill: url(#linear-gradient);
      }

      .cls-4 {
        fill: url(#linear-gradient-2);
      }

      .cls-5 {
        fill: url(#linear-gradient-3);
      }

      .cls-6 {
        fill: url(#linear-gradient-4);
      }

      .cls-7 {
        fill: url(#linear-gradient-5);
      }

      .cls-8 {
        fill: url(#linear-gradient-6);
      }

      .cls-9 {
        fill: url(#linear-gradient-7);
      }

      .cls-10 {
        fill: url(#linear-gradient-8);
      }

      .cls-11 {
        fill: url(#linear-gradient-9);
      }

      .cls-12 {
        fill: url(#linear-gradient-10);
      }

      .cls-13 {
        fill: url(#linear-gradient-11);
      }

      .cls-14 {
        fill: url(#linear-gradient-12);
      }

      .cls-15 {
        fill: url(#linear-gradient-13);
      }

      .cls-16 {
        fill: url(#linear-gradient-14);
      }

      .cls-17 {
        fill: url(#linear-gradient-15);
      }

      .cls-18 {
        fill: url(#linear-gradient-16);
      }

      .cls-19 {
        fill: url(#linear-gradient-17);
      }

      .cls-20 {
        fill: url(#linear-gradient-18);
      }

      .cls-21 {
        fill: url(#linear-gradient-19);
      }

      .cls-22 {
        fill: url(#linear-gradient-20);
      }

      .cls-23 {
        fill: url(#linear-gradient-21);
      }

      .cls-24 {
        fill: url(#linear-gradient-22);
      }

      .cls-25 {
        fill: url(#linear-gradient-23);
      }

      .cls-26 {
        fill: url(#linear-gradient-24);
      }

      .cls-27 {
        fill: url(#linear-gradient-25);
      }

      .cls-28 {
        fill: url(#linear-gradient-26);
      }

      .cls-29 {
        fill: url(#linear-gradient-27);
      }

      .cls-30 {
        fill: url(#linear-gradient-28);
      }

      .cls-31 {
        fill: url(#linear-gradient-29);
      }
    </style>
    <linearGradient id="linear-gradient" x1="43.65" y1="398.92" x2="103.03" y2="140.39" gradientUnits="userSpaceOnUse">
      <stop offset="0"/>
      <stop offset="0.03" stop-color="#080808"/>
      <stop offset="0.15" stop-color="#252525"/>
      <stop offset="0.27" stop-color="#393939"/>
      <stop offset="0.39" stop-color="#464646"/>
      <stop offset="0.5" stop-color="#4a4a4a"/>
      <stop offset="0.61" stop-color="#464646"/>
      <stop offset="0.73" stop-color="#393939"/>
      <stop offset="0.85" stop-color="#252525"/>
      <stop offset="0.97" stop-color="#080808"/>
      <stop offset="1"/>
    </linearGradient>
    <linearGradient id="linear-gradient-2" x1="168.09" y1="398.92" x2="227.47" y2="140.39" gradientTransform="matrix(-1, 0, 0, 1, 467.34, 0)" xlink:href="#linear-gradient"/>
    <linearGradient id="linear-gradient-3" x1="145.02" y1="39.79" x2="153.91" y2="107.23" xlink:href="#linear-gradient"/>
    <linearGradient id="linear-gradient-4" x1="193.68" y1="39.79" x2="202.57" y2="107.23" gradientTransform="matrix(-1, 0, 0, 1, 392.45, 0)" xlink:href="#linear-gradient"/>
    <linearGradient id="linear-gradient-5" x1="114.3" y1="397.68" x2="126.71" y2="720.16" xlink:href="#linear-gradient"/>
    <linearGradient id="linear-gradient-6" x1="161.38" y1="430.43" x2="152.16" y2="556.4" xlink:href="#linear-gradient"/>
    <linearGradient id="linear-gradient-7" x1="243.07" y1="397.68" x2="255.48" y2="720.16" gradientTransform="matrix(-1, 0, 0, 1, 471.99, 0)" xlink:href="#linear-gradient"/>
    <linearGradient id="linear-gradient-8" x1="290.15" y1="430.43" x2="280.93" y2="556.4" gradientTransform="matrix(-1, 0, 0, 1, 471.99, 0)" xlink:href="#linear-gradient"/>
    <linearGradient id="linear-gradient-9" x1="75.23" y1="754.46" x2="125.01" y2="727.42" xlink:href="#linear-gradient"/>
    <linearGradient id="linear-gradient-10" x1="208.3" y1="754.46" x2="258.07" y2="727.42" gradientTransform="matrix(-1, 0, 0, 1, 475.84, 0)" xlink:href="#linear-gradient"/>
    <linearGradient id="linear-gradient-11" x1="117.44" y1="252.28" x2="118.05" y2="389.93" xlink:href="#linear-gradient"/>
    <linearGradient id="linear-gradient-12" x1="187.64" y1="252.28" x2="188.26" y2="389.93" gradientTransform="matrix(-1, 0, 0, 1, 411, 0)" xlink:href="#linear-gradient"/>
    <linearGradient id="linear-gradient-13" x1="60.65" y1="419.36" x2="61.03" y2="456.17" xlink:href="#linear-gradient"/>
    <linearGradient id="linear-gradient-14" x1="12.79" y1="433.96" x2="41.25" y2="418.78" xlink:href="#linear-gradient"/>
    <linearGradient id="linear-gradient-15" x1="31.97" y1="444.73" x2="22.1" y2="467.88" xlink:href="#linear-gradient"/>
    <linearGradient id="linear-gradient-16" x1="301.33" y1="419.36" x2="301.71" y2="456.17" gradientTransform="matrix(-1, 0, 0, 1, 584.13, 0)" xlink:href="#linear-gradient"/>
    <linearGradient id="linear-gradient-17" x1="253.48" y1="433.96" x2="281.94" y2="418.78" gradientTransform="matrix(-1, 0, 0, 1, 584.13, 0)" xlink:href="#linear-gradient"/>
    <linearGradient id="linear-gradient-18" x1="272.65" y1="444.73" x2="262.79" y2="467.88" gradientTransform="matrix(-1, 0, 0, 1, 584.13, 0)" xlink:href="#linear-gradient"/>
    <linearGradient id="linear-gradient-19" x1="213.1" y1="719.33" x2="217.41" y2="755.74" gradientTransform="matrix(-1, 0, 0, 1, 407.69, 0)" xlink:href="#linear-gradient"/>
    <linearGradient id="linear-gradient-20" x1="148.92" y1="719.33" x2="153.22" y2="755.74" xlink:href="#linear-gradient"/>
    <linearGradient id="linear-gradient-21" x1="221.63" y1="598.17" x2="210.67" y2="680.39" gradientTransform="matrix(-1, 0, 0, 1, 409.42, 0)" xlink:href="#linear-gradient"/>
    <linearGradient id="linear-gradient-22" x1="155.78" y1="598.17" x2="144.81" y2="680.39" xlink:href="#linear-gradient"/>
    <linearGradient id="linear-gradient-23" x1="114.25" y1="131.22" x2="154.01" y2="131.22" xlink:href="#linear-gradient"/>
    <linearGradient id="linear-gradient-24" x1="133.79" y1="138.6" x2="163.77" y2="138.6" xlink:href="#linear-gradient"/>
    <linearGradient id="linear-gradient-25" x1="240.84" y1="131.22" x2="280.6" y2="131.22" gradientTransform="matrix(-1, 0, 0, 1, 470.82, 0)" xlink:href="#linear-gradient"/>
    <linearGradient id="linear-gradient-26" x1="260.38" y1="138.6" x2="290.36" y2="138.6" gradientTransform="matrix(-1, 0, 0, 1, 470.82, 0)" xlink:href="#linear-gradient"/>
    <linearGradient id="linear-gradient-27" x1="261.78" y1="248.06" x2="236.48" y2="364.36" gradientTransform="matrix(-1, 0, 0, 1, 506.11, 0)" xlink:href="#linear-gradient"/>
    <linearGradient id="linear-gradient-28" x1="98.89" y1="248.06" x2="73.59" y2="364.36" xlink:href="#linear-gradient"/>
    <linearGradient id="linear-gradient-29" x1="142.6" y1="18.58" x2="186.29" y2="4.12" xlink:href="#linear-gradient"/>
  </defs>
  <title>Middel 9</title>
  <g class="cls-1">
    <g id="Laag_2" data-name="Laag 2">
      <g id="Internal_Organs" data-name="Internal Organs">
        <g id="Body">
          <path class="cls-2" d="M335.55,430.81c-4.38-1.05-14.31-5.08-17.72-7.71s-9.12-5.25-11-10.92c-8.72-26.64-6.18-42.59-12.33-80.59-3.28-20.26-10.6-39-12.3-49.54-5-31.16.32-68.26-10-100.31-8.76-27.33-23.91-41.43-41.4-44.7-20.55-3-37.54-14.71-39.79-21.19,0-1.2.46-5.68.79-9.21a21.27,21.27,0,0,0,7.36-11.81c1.73-8.66,4.16-12.91,4.16-12.91a4.2,4.2,0,0,0,5-1.93c.79-1.34.55-4.53,1.53-9,1.26-5.78,4.74-10.81-.35-12.83-2.94-1.17-4.52.49-4.52.49.33-1.69,1.82-4.07,2.14-5.76C211.4,30.12,207.11,9.17,187,0c-8,2.66-13.28,4.06-27.42,6C135.74,9.17,134,32.2,136.26,46.71c.81,5.15,2.61,9.32,2.66,12.18h0a5.33,5.33,0,0,0-5-.77c-5.09,2-1.62,7.05-.36,12.83,1,4.5.75,7.69,1.53,9a4.22,4.22,0,0,0,5,1.93s2.4,4.25,4.13,12.91a21.21,21.21,0,0,0,7.39,11.82c.33,3.67.75,8.36.79,9.2-2.26,6.48-19.21,18.16-39.76,21.19-17.49,3.27-29,12.17-36.79,32.73-12.46,32.95-8.64,82.36-14.56,112.28-2.08,10.5-9,29.28-12.3,49.54-6.15,38-3.61,54-12.33,80.59-1.86,5.67-7.56,8.3-11,10.92S12.34,429.76,8,430.81s-9.25,2.31-7.65,5.32,8,3.93,12.57,3.36,8.9-2.44,12.41-.27,2.36,6.09,1,9.53l-3.52,8.93c-1.22,3.1-4.68,10.87-6,14.3S10,483.2,15,484.4s7.3-7.44,9.34-10.61,6.17-13.77,8-13.14-.24,6.65-1.11,9.88S27.8,482.69,26.52,487s-3.46,7.77.66,9.39,5.53-5,5.53-5,2.21-7.08,3.84-11.21c2-5,3.71-18,5.72-17.48,1.84.44,1.68,6.13,1.8,9.33s-.08,11,0,15.2-.94,8.07,3.29,8.38S51,489.49,51,489.49s.43-6,.73-10.21c1.23-17,1.15-19.08,2.19-19.15s2.41,4.8,2.89,7.92,1.13,10.46,1.65,14.51,0,7.8,4.05,7.63S65.25,484,65.25,484s-.25-5.75-.42-9.82c-.16-3.73-1.88-10.79-2.29-14.81-.38-3.17,2.61-10.56,3.37-16.91.91-10.37-3.78-20.22-3.23-26.41,1.81-20.28,7-28.09,14.75-49.85,17.1-47.85,13.28-65.65,15.88-80.78s10.27-24.32,14.43-40.69c5.11,20.14,7.38,54.86,6.4,76.69-1,22.07-5.78,33.41-8.87,67.76C99.81,418.22,115,500.43,115,532.76c0,21-6.76,36.41-2.71,68.16,12.22,95.7,12.94,105,4.65,121.7-3.64,7.34-14.13,12.66-18.89,14.69s-11.33,6.41-17.26,8-11.08,5.12-13.71,5.33-5.73.06-7.27,2.09-1.46,4.81,1.65,7.19,8.34,1.69,8.34,1.69c-1,.88,6.71,4.8,11.28,2.69a29.31,29.31,0,0,0,7.28,2.11c4.58.79,15.08-1.31,20.32-4s15.64-6.56,21.28-6.19,15,3,20.34,2.46,8.9-3.56,10.32-7.67-1.26-12.57-3.07-16.67-4.26-14.12-5.39-23.62c-1.45-12.29-2.07-54.72,2.71-72,5.4-19.59,8.32-48.1,7-73.78s-2-22.5-1.23-34c.45-6.93,6.29-64.11,11.11-101.7,4.83,37.59,10.67,94.77,11.12,101.7.73,11.54.12,8.36-1.23,34s1.56,54.19,7,73.78c4.78,17.3,4.16,59.73,2.71,72-1.13,9.5-3.59,19.53-5.39,23.62s-4.48,12.56-3.07,16.67,4.94,7.09,10.32,7.67,14.69-2.1,20.34-2.46,16,3.53,21.28,6.19,15.74,4.76,20.32,4a29.31,29.31,0,0,0,7.28-2.11c4.57,2.11,12.28-1.81,11.28-2.69,0,0,5.22.69,8.33-1.69s3.21-5.17,1.66-7.19-4.64-1.88-7.27-2.09-7.76-3.7-13.71-5.33-12.49-6-17.26-8-15.25-7.35-18.89-14.69c-8.29-16.72-7.57-26,4.65-121.7,4-31.75-2.71-47.21-2.71-68.16,0-32.33,15.23-114.54,9.77-143.62-3.09-34.35-7.89-45.69-8.87-67.76-1-21.83,1.29-56.55,6.4-76.69,4.16,16.37,11.82,25.57,14.43,40.69s-1.22,32.93,15.88,80.79c7.77,21.75,12.94,29.56,14.75,49.84.55,6.19-4.14,16-3.23,26.41.76,6.35,3.75,13.74,3.37,16.91-.41,4-2.13,11.08-2.29,14.81-.17,4.07-.42,9.82-.42,9.82s-1.27,6.05,2.79,6.23,3.54-3.58,4.05-7.63,1.18-11.48,1.65-14.51,1.86-8,2.89-7.92,1,2.1,2.19,19.15c.3,4.23.73,10.21.73,10.21s-.6,6.41,3.62,6.11,3.24-4.13,3.29-8.38-.16-12,0-15.2,0-8.89,1.8-9.33c2-.48,3.77,12.52,5.72,17.48,1.63,4.13,3.84,11.21,3.84,11.21s1.4,6.59,5.53,5,1.94-5.13.66-9.39-3.82-13.19-4.7-16.42-2.89-9.25-1.11-9.88,5.91,10,7.95,13.14,4.26,11.82,9.34,10.61-.36-9-1.71-12.42-4.81-11.2-6-14.3l-3.52-8.93c-1.35-3.44-2.5-7.36,1-9.53s7.82-.3,12.41.27,11-.35,12.57-3.36S339.93,431.86,335.55,430.81Z"/>
          <g id="Highlights">
            <path class="cls-3" d="M66.94,267.3c2.57-30.54,2.86-55.32,8.33-78.19,2.77-11.35,6.46-22.47,13.4-32.24,6.79-10,18.39-16.58,31.28-18-12.78,2.71-23,10-28.51,19.82-5.73,9.68-8.49,20.5-10.52,31.58-4,22.37-3.6,46.54-6.22,77.78-1,15.83-5.87,29.76-9.31,41.71a270.68,270.68,0,0,0-7.81,34.88C53.4,367,53.41,389.58,44,414c7-25.11,5-47.07,7.89-70.14a225.89,225.89,0,0,1,6.5-36C61.65,295.11,66,282.61,66.94,267.3Z"/>
            <path class="cls-4" d="M276,267.3c-2.57-30.54-2.86-55.32-8.33-78.19-2.77-11.35-6.46-22.47-13.4-32.24-6.78-10-18.39-16.58-31.28-18,12.78,2.71,23,10,28.51,19.82,5.73,9.68,8.49,20.5,10.52,31.58,4,22.37,3.6,46.54,6.22,77.78,1,15.83,5.87,29.76,9.31,41.71a270.68,270.68,0,0,1,7.81,34.88c4.18,22.34,4.18,44.93,13.61,69.36-7-25.11-5-47.07-7.89-70.14a224.77,224.77,0,0,0-6.5-36C281.24,295.11,276.92,282.61,276,267.3Z"/>
            <path class="cls-5" d="M151.92,92.76c-1.26-7.9-4.56-23.3-6.19-33.88-1.21-8.45,1.89-14,.72-20.27A34.82,34.82,0,0,0,143,60c1.69,10.92.72,26.36,3.31,34.14,2.71,7.34,5.8,10,14.12,14.71C154,102.31,153.45,100.45,151.92,92.76Z"/>
            <path class="cls-6" d="M191.87,92.76c1.26-7.9,4.56-23.3,6.19-33.88,1.21-8.45-1.89-14-.72-20.27A34.82,34.82,0,0,1,200.78,60c-1.69,10.92-.72,26.36-3.31,34.14-2.71,7.34-5.8,10-14.13,14.71C189.82,102.31,190.34,100.45,191.87,92.76Z"/>
            <path class="cls-7" d="M116.62,559.2c2.92-17.27,2.19-32,.83-46.49-1.22-14.33-2.59-27.6-3.72-40.53-1.69-25.79-5.32-50.62-.93-79.67-1.89,29.14,3.66,53.35,6.66,79,1.79,12.84,3.66,26,5.24,40.49,1.74,14.17,2.64,30.87-.34,48.18a165,165,0,0,0-.51,46.37c1.66,14.36,3.08,27.62,4.31,40.56s2.3,25.52,2.83,38.6c.28,12.79,1.27,27.44-6.49,40.26,6.59-13.4,4.37-27.28,3.18-40-1.48-12.88-3.39-25.34-5.25-38.16s-3.81-26-5.81-40.33A160.18,160.18,0,0,1,116.62,559.2Z"/>
            <path class="cls-8" d="M160.41,496.39c-1.41,14.08-3,25.19-4.42,35.44-1.36,10-.67,20.28-1.57,32.13-1.58-11.83-4.23-21.4-4.19-32.46.12-10.76,1-21.76,2.42-35.93,3-28.25,6.22-44.12,11.65-67.34C163.81,452.06,163.36,468.18,160.41,496.39Z"/>
            <path class="cls-9" d="M226.6,559.2c-2.92-17.27-2.18-32-.82-46.49,1.22-14.33,2.59-27.6,3.71-40.53,1.69-25.79,5.32-50.62.94-79.67,1.88,29.14-3.67,53.35-6.67,79-1.78,12.84-3.66,26-5.23,40.49-1.75,14.17-2.65,30.87.34,48.18a165,165,0,0,1,.51,46.37c-1.66,14.36-3.09,27.62-4.32,40.56s-2.3,25.52-2.83,38.6C212,698.52,211,713.17,218.72,726c-6.58-13.4-4.37-27.28-3.18-40,1.48-12.88,3.39-25.34,5.25-38.16s3.81-26,5.81-40.33A159.53,159.53,0,0,0,226.6,559.2Z"/>
            <path class="cls-10" d="M182.82,496.39c1.41,14.08,3,25.19,4.42,35.44,1.35,10,.66,20.28,1.56,32.13,1.58-11.83,4.24-21.4,4.19-32.46-.11-10.76-1-21.76-2.42-35.93-2.95-28.25-6.21-44.12-11.65-67.34C179.41,452.06,179.86,468.18,182.82,496.39Z"/>
            <path class="cls-11" d="M96.61,741.49c11-5.37,17.52-7.07,24-15-4.26,9.44-11.75,13.47-22.22,18.5-5.24,2.83-9.86,5.06-14.4,5.9-4.24.77-8.11,3-13.23,3.66,4.66-1.85,7.91-4.86,12.39-6.41C87.36,746.63,91.2,744.39,96.61,741.49Z"/>
            <path class="cls-12" d="M246.17,741.49c-11-5.37-17.53-7.07-24-15,4.26,9.44,11.75,13.47,22.22,18.5,5.24,2.83,9.86,5.06,14.4,5.9,4.24.77,8.11,3,13.23,3.66-4.66-1.85-7.9-4.86-12.38-6.41C255.41,746.63,251.57,744.39,246.17,741.49Z"/>
            <path class="cls-13" d="M116.61,321.8c-.1-29.86.19-47-2.65-72.21,7.74,24.29,10.37,41.78,10.45,72.4-1.34,31.28-8.89,46.93-12.92,72.06C110.56,368.57,115.44,351.15,116.61,321.8Z"/>
            <path class="cls-14" d="M224.17,321.8c.11-29.86-.18-47,2.66-72.21-7.74,24.29-10.37,41.78-10.45,72.4,1.33,31.28,8.89,46.93,12.92,72.06C230.23,368.57,225.35,351.15,224.17,321.8Z"/>
            <path class="cls-15" d="M63.68,437.74c.49,10.07-3.81,14.33-5.36,21.72-.83-7.88,2-13.09,1.46-21.52-.47-8.64-2.57-14-1.31-21.81C59.67,423.68,63.09,428.06,63.68,437.74Z"/>
            <path class="cls-16" d="M28.34,425c5.8-4.32,10.14-4.94,13.49-10.25-1.06,6.55-5.7,9.42-11.47,13.59-6.74,3.7-11,4.48-17.23,5C18.58,430.47,22.24,428.33,28.34,425Z"/>
            <path class="cls-17" d="M26,453.76a41.23,41.23,0,0,1,6.45-10.91,38.8,38.8,0,0,1-2.85,12.43c-2,4.85-3.91,7.23-6.7,10.8A38.74,38.74,0,0,1,26,453.76Z"/>
            <path class="cls-18" d="M279.77,437.74c-.49,10.07,3.8,14.33,5.35,21.72.84-7.88-2-13.09-1.46-21.52.47-8.64,2.58-14,1.31-21.81C283.78,423.68,280.36,428.06,279.77,437.74Z"/>
            <path class="cls-19" d="M315.11,425c-5.81-4.32-10.15-4.94-13.49-10.25,1.06,6.55,5.7,9.42,11.47,13.59,6.73,3.7,11,4.48,17.23,5C324.87,430.47,321.2,428.33,315.11,425Z"/>
            <path class="cls-20" d="M317.44,453.76A41,41,0,0,0,311,442.85a38.57,38.57,0,0,0,2.86,12.43c2,4.85,3.9,7.23,6.7,10.8A38.77,38.77,0,0,0,317.44,453.76Z"/>
            <path class="cls-21" d="M185.66,739c-1.27,4.65-1.89,9.85.94,13.31a12.34,12.34,0,0,0,10.5,4.84c-8.08-2.83-10.7-8.13-7.68-17.14,3.08-8.68,4.68-15.14,4.67-23.23C191.44,725,189.14,729.14,185.66,739Z"/>
            <path class="cls-22" d="M157.85,739c1.27,4.65,1.89,9.85-.94,13.31a12.35,12.35,0,0,1-10.51,4.84c8.09-2.83,10.71-8.13,7.69-17.14-3.08-8.68-4.68-15.14-4.67-23.23C152.07,725,154.37,729.14,157.85,739Z"/>
            <path class="cls-23" d="M192.29,642.83c3.44,17.93,3.77,28.78,5.33,44.34.9-15.67,2.07-26.38-1.55-45.28A432.11,432.11,0,0,1,187.16,598C187.15,613.61,187.64,624.55,192.29,642.83Z"/>
            <path class="cls-24" d="M151.28,642.83c-3.44,17.93-3.77,28.78-5.33,44.34-.91-15.67-2.08-26.38,1.54-45.28A429.39,429.39,0,0,0,156.4,598C156.41,613.61,155.92,624.55,151.28,642.83Z"/>
            <path class="cls-25" d="M135.46,133.22c8.15-4.47,13.51-6.35,18.55-12.6-3,7.78-8.33,11.53-16.85,16.11-9,4.2-14.79,5-22.91,5.09A178.37,178.37,0,0,0,135.46,133.22Z"/>
            <path class="cls-26" d="M148.85,140.5a82.91,82.91,0,0,1-15.06-.43,42.86,42.86,0,0,1,14.84-3.46,38.68,38.68,0,0,1,15.14,1.94A105.14,105.14,0,0,1,148.85,140.5Z"/>
            <path class="cls-27" d="M208.77,133.22c-8.15-4.47-13.51-6.35-18.55-12.6,3,7.78,8.33,11.53,16.85,16.11,9,4.2,14.79,5,22.92,5.09A177.8,177.8,0,0,1,208.77,133.22Z"/>
            <path class="cls-28" d="M195.38,140.5a82.91,82.91,0,0,0,15.06-.43,42.86,42.86,0,0,0-14.84-3.46,38.68,38.68,0,0,0-15.14,1.94A105.14,105.14,0,0,0,195.38,140.5Z"/>
            <path class="cls-29" d="M254.32,305.06c2.4,26.44,8,40.74,16.17,61-5.8-21.11-9.94-35.47-12.28-61.3-.65-12.83-1.58-23.87-6-32.85-3.91-9.08-8.72-16.83-12.08-27.33,2.13,10.79,6.22,19.34,9.39,28.36C253.17,282,253.62,291.79,254.32,305.06Z"/>
            <path class="cls-30" d="M88.9,305.06c-2.4,26.44-8,40.74-16.16,61,5.8-21.11,9.93-35.47,12.28-61.3.65-12.83,1.58-23.87,6-32.85,3.91-9.08,8.73-16.83,12.08-27.33-2.12,10.79-6.21,19.34-9.38,28.36C90.05,282,89.61,291.79,88.9,305.06Z"/>
            <path class="cls-31" d="M164.44,7.93c10.76-1.52,16.73-2,25.79-3.76-8.2,4.1-14.42,6.1-25.25,7.63-10.36,1.43-16,3.75-21.9,10.86C146.58,14.24,153.37,9.26,164.44,7.93Z"/>
          </g>
        </g>
      </g>
    </g>
  </g>
</svg>
