<svg xmlns="http://www.w3.org/2000/svg" xmlns:xlink="http://www.w3.org/1999/xlink" viewBox="0 0 110.81 103.18">
  <defs>
    <style>
    
      .cls-1, .cls-2, .cls-3, .cls-4, .cls-5, .cls-6, .cls-7, .cls-8, .cls-9, .cls-10, .cls-11, .cls-12, .cls-13, .cls-14, .cls-15, .cls-16, .cls-17, .cls-18, .cls-19, .cls-20, .cls-21, .cls-22, .cls-23, .cls-24, .cls-25, .cls-26, cls-27 {
        fill: #F6921E !important;
        mix-blend-mode: multiply;
	  }

	  .cls-1 {
        isolation: isolate;
      }

      .cls-2 {
        fill: url(#linear-gradient);
      }

      .cls-3 {
        mix-blend-mode: screen;
        fill: url(#linear-gradient-2);
      }

      .cls-20, .cls-4, .cls-5, .cls-6, .cls-7 {
        mix-blend-mode: multiply;
      }

      .cls-4 {
        fill: url(#linear-gradient-3);
      }

      .cls-5 {
        fill: url(#linear-gradient-4);
      }

      .cls-6 {
        fill: url(#linear-gradient-5);
      }

      .cls-8 {
        fill: url(#linear-gradient-6);
      }

      .cls-9 {
        fill: url(#linear-gradient-7);
      }

      .cls-10 {
        fill: url(#linear-gradient-8);
      }

      .cls-11 {
        fill: url(#linear-gradient-9);
      }

      .cls-12 {
        fill: url(#linear-gradient-10);
      }

      .cls-13 {
        fill: url(#linear-gradient-11);
      }

      .cls-14 {
        fill: url(#linear-gradient-12);
      }

      .cls-15 {
        fill: url(#linear-gradient-13);
      }

      .cls-16 {
        fill: url(#linear-gradient-14);
      }

      .cls-17 {
        fill: url(#linear-gradient-15);
      }

      .cls-18 {
        fill: url(#linear-gradient-16);
      }

      .cls-19 {
        fill: url(#linear-gradient-17);
      }

      .cls-20 {
        fill: url(#linear-gradient-18);
      }

      .cls-21 {
        fill: url(#linear-gradient-19);
      }
    </style>
    <linearGradient id="linear-gradient" y1="51.59" x2="110.81" y2="51.59" gradientUnits="userSpaceOnUse">
      <stop offset="0" stop-color="#003db8"/>
      <stop offset="0.02" stop-color="#0046be"/>
      <stop offset="0.08" stop-color="#0060d1"/>
      <stop offset="0.16" stop-color="#0074e0"/>
      <stop offset="0.24" stop-color="#0082ea"/>
      <stop offset="0.34" stop-color="#008af0"/>
      <stop offset="0.5" stop-color="#008df2"/>
      <stop offset="0.66" stop-color="#008af0"/>
      <stop offset="0.76" stop-color="#0082ea"/>
      <stop offset="0.84" stop-color="#0074e0"/>
      <stop offset="0.92" stop-color="#0060d1"/>
      <stop offset="0.98" stop-color="#0046be"/>
      <stop offset="1" stop-color="#003db8"/>
    </linearGradient>
    <linearGradient id="linear-gradient-2" x1="56.02" y1="46.65" x2="33.95" y2="-8.3" gradientUnits="userSpaceOnUse">
      <stop offset="0"/>
      <stop offset="1" stop-color="#66c7ff"/>
    </linearGradient>
    <linearGradient id="linear-gradient-3" x1="98.09" y1="91.07" x2="70.52" y2="63.78" gradientUnits="userSpaceOnUse">
      <stop offset="0" stop-color="#fff"/>
      <stop offset="1" stop-color="#66c7ff"/>
    </linearGradient>
    <linearGradient id="linear-gradient-4" x1="71.79" y1="103.55" x2="71.07" y2="99.26" xlink:href="#linear-gradient-3"/>
    <linearGradient id="linear-gradient-5" x1="68.77" y1="96.89" x2="55.95" y2="67.29" xlink:href="#linear-gradient-3"/>
    <linearGradient id="linear-gradient-6" x1="46.08" y1="-51.9" x2="46.08" y2="63.54" xlink:href="#linear-gradient-3"/>
    <linearGradient id="linear-gradient-7" x1="14.11" y1="-51.9" x2="14.11" y2="63.54" xlink:href="#linear-gradient-3"/>
    <linearGradient id="linear-gradient-8" x1="9.14" y1="-51.89" x2="9.14" y2="63.54" xlink:href="#linear-gradient-3"/>
    <linearGradient id="linear-gradient-9" x1="30.75" y1="-51.89" x2="30.75" y2="63.53" xlink:href="#linear-gradient-3"/>
    <linearGradient id="linear-gradient-10" x1="41.46" y1="-51.89" x2="41.46" y2="63.54" xlink:href="#linear-gradient-3"/>
    <linearGradient id="linear-gradient-11" x1="53.25" y1="-51.9" x2="53.25" y2="63.54" xlink:href="#linear-gradient-3"/>
    <linearGradient id="linear-gradient-12" x1="75.43" y1="-51.9" x2="75.43" y2="63.54" xlink:href="#linear-gradient-3"/>
    <linearGradient id="linear-gradient-13" x1="34.03" y1="-51.89" x2="34.03" y2="63.54" xlink:href="#linear-gradient-3"/>
    <linearGradient id="linear-gradient-14" x1="82.76" y1="-51.9" x2="82.76" y2="63.54" xlink:href="#linear-gradient-3"/>
    <linearGradient id="linear-gradient-15" x1="87.11" y1="-51.89" x2="87.11" y2="63.53" xlink:href="#linear-gradient-3"/>
    <linearGradient id="linear-gradient-16" x1="89.76" y1="-51.9" x2="89.76" y2="63.54" xlink:href="#linear-gradient-3"/>
    <linearGradient id="linear-gradient-17" x1="97.25" y1="-51.89" x2="97.25" y2="63.53" xlink:href="#linear-gradient-3"/>
    <linearGradient id="linear-gradient-18" x1="82.03" y1="91.11" x2="102.08" y2="77.6" gradientUnits="userSpaceOnUse">
      <stop offset="0" stop-color="#fff"/>
      <stop offset="0.5" stop-color="#66c7ff"/>
      <stop offset="1" stop-color="#fff"/>
    </linearGradient>
    <linearGradient id="linear-gradient-19" x1="65.74" y1="79.3" x2="103.41" y2="79.3" xlink:href="#linear-gradient-3"/>
  </defs>
  <title>Middel 2</title>
  <g class="cls-1">
    <g id="Laag_2" data-name="Laag 2">
      <g id="Internal_Organs" data-name="Internal Organs">
        <g id="Brain">
          <g>
            <path class="cls-2" d="M22.44,64.53S9.77,64.12,3.5,54.86-.86,27.47,11.13,16.57,42.88-4.55,72.72,2.13,108,35.37,109.92,45.45s1.63,21.94-9.81,21.81c5.31,3.54,7.37,11.26-.49,18.9-5.9,5.73-15.27,11-26.08,6.71,0,0,1.38,6.22,1.5,8.31.09,1.69-6.17,3.06-7.13.88s-3.13-7.23-5.58-12.4-7.46-6.6-8.28-11c0,0-12.89,4.84-21.61-1.29S22.44,64.53,22.44,64.53Z"/>
            <path class="cls-3" d="M23.75,38.42C35.74,27.51,55.49,17.3,85.33,24a44.78,44.78,0,0,1,22.28,11.78C103.94,23.67,95.34,7.19,72.72,2.13,42.88-4.55,23.12,5.67,11.13,16.57s-13.89,29-7.63,38.29a20.9,20.9,0,0,0,9.17,7.31A34.69,34.69,0,0,1,23.75,38.42Z"/>
            <path class="cls-4" d="M99.62,86.16c7.86-7.64,5.8-15.36.49-18.9-4.25.64-17.65,3.81-25.73,3.81s-10,4.73-7.79,7.52a41.91,41.91,0,0,1,7,14.28C84.35,97.21,93.72,91.89,99.62,86.16Z"/>
            <path class="cls-5" d="M71.58,100.62a7.47,7.47,0,0,0-3.73,1.28l.06.16c1,2.18,7.22.81,7.13-.88,0-.08,0-.19,0-.29A8.15,8.15,0,0,0,71.58,100.62Z"/>
            <path class="cls-6" d="M62.33,89.66c2.45,5.17,4.63,10.22,5.58,12.4s7.22.81,7.13-.88c-.12-2.09-1.5-8.31-1.5-8.31a41.91,41.91,0,0,0-7-14.28,3.79,3.79,0,0,1-.86-2.3A18.63,18.63,0,0,0,54.05,78.7C54.87,83.06,59.87,84.48,62.33,89.66Z"/>
            <g class="cls-7">
              <path class="cls-8" d="M23,58.41c.38-1.5,3.5-5.61,7-5,1.46.26,1.41-3.88.71-4a11.1,11.1,0,0,0-5.64.47c-1.48.54-1.44-1-.73-2.06a7.31,7.31,0,0,1,2.77-2.6c2.31-1.2,5.2-.94,8.6.76,5.31,2.65,10.71,5.07,15.67,5.5a23.44,23.44,0,0,1,4.52.73c1.75.82,4.15,2.32,5.23,4.48.88,1.75,4.41-.36,3.64-1.82a21.15,21.15,0,0,0-2.62-4c-1.15-1.34-.48-2.45.87-4,6.32-7.38,10.79-7.73,12.06-16,.33-2.09-3.74-2.54-4-.57a10.3,10.3,0,0,1-2.54,5.3c-1.58,1.78-3.74-4.7-4-5.9-.65-2.55-.11-9.68-2.64-13.28-.67-.95-4.06,1.08-3.29,2.39a11,11,0,0,1,1.07,3.72c.3,2-.44,2.79-1.82,2.47a28.87,28.87,0,0,0-3.46-.53c-.82-.09-1.63,3.86-.46,4C57,29,60.21,31.13,61.34,34a9.86,9.86,0,0,1-2,9.81c-2.41,2.8-5.56,3.45-9.64,2.6-1.32-.27-1.24-1.17-.66-2.11a14,14,0,0,0,1.28-2.91c.4-1.2-3.45-2.71-3.91-1.11-.54,1.9-3.83,3.83-8.61,1.45-3.65-1.83-7.58,0-9.07-1.91-1.1-1.4.91-4.15,1.22-5.92.2-1.1-3.59-2.78-4-.71-1,5.09-4.58,10.61-4.61,10.65-3.81,4.85-4.85,14.78-3.85,20a28.38,28.38,0,0,0,5,.76A16.09,16.09,0,0,1,23,58.41Z"/>
              <path class="cls-9" d="M9.81,54.24c.07,2,4.08.52,4.06-.15a14.69,14.69,0,0,0-1.13-5.44c-.55-1.21-.26-1.66,1.13-2.3a11.93,11.93,0,0,0,6.46-6.2A33.3,33.3,0,0,0,22.27,30c.5-6,1.68-9.38,5.43-10.82,1.29-.5-.55-4.07-1.1-3.91a19.85,19.85,0,0,0-3.41,1.16c-.8.39-1.36.24-1.9-.62A3.84,3.84,0,0,1,20.53,14c.09-1.59-4-2.29-4-.56a13.25,13.25,0,0,0,1.68,6.14,3.68,3.68,0,0,1,.41,3,34.07,34.07,0,0,0-1.08,7,29.77,29.77,0,0,1-1.6,8.71,6.78,6.78,0,0,1-3.15,3.23c-1.66.91-1.66-.42-1.43-1.69a18,18,0,0,0,.16-5.68c-.24-1.39-4.19-1.9-4,.67.46,6.81-3.54,8.72-7.4,9.07a25.48,25.48,0,0,0,.78,4.89c1.31,0,2.79-.29,4.37-.27A5.81,5.81,0,0,1,9.81,54.24Z"/>
              <path class="cls-10" d="M10.31,28.8c1,1.12,4.71-.7,3.06-2.68A17.76,17.76,0,0,0,6.94,21.2,34.71,34.71,0,0,0,4.5,25,12,12,0,0,1,10.31,28.8Z"/>
              <path class="cls-11" d="M29.65,12.66c.8,1.6,4.56,0,3.64-1.81a9.65,9.65,0,0,1-.5-7.29c-1.63.57-3.21,1.19-4.72,1.87A15.37,15.37,0,0,0,29.65,12.66Z"/>
              <path class="cls-12" d="M34.58,18.89c-.08,1.18,0,1.75-.48,2.46a7.45,7.45,0,0,1-3.91,3c-2.27.57-.6,4.34,1,4a19.19,19.19,0,0,0,3.29-1.08c1.14-.53,1.38-.38,1.89.57,3,5.72,10.13,9.13,16.77,8.81.92,0,1-4.06,0-4.06-2.54,0-12.88-1.16-13.78-11.53-.1-1.14.9-2.73,1.93-1.57a14.07,14.07,0,0,0,3.3,2.75c1.13.66,3.66-2.57,2.05-3.51C38.45,13.86,44.4,4.52,47,.39c-2.12.22-4.16.54-6.12.94C38.39,5.81,35,12.85,34.58,18.89Z"/>
              <path class="cls-13" d="M51.13,14.71c.68,2.24,4.17-.25,3.88-1.2C53.57,8.81,55,3.45,56.24,0c-1.61,0-3.19,0-4.73,0C50.38,4.14,49.56,9.63,51.13,14.71Z"/>
              <path class="cls-14" d="M95.76,50.46c-5.29-2.65-14.94-2.64-14-11,.24-2.12-3.94-2.08-4-.37a16.87,16.87,0,0,0,1.06,7.24c.69,1.72,1,2.47-.92,3.22a20.71,20.71,0,0,0-10.83,9.8c-2.77,5.15-6.7,7-9.35,6.58-2.38-.4-4.48-3.1-5-6.18-.25-1.47-4.24-.67-4,.67a16.88,16.88,0,0,0,2.48,6.75c.62.87.9,1.78-.31,2.5A11.86,11.86,0,0,1,43.55,71c-1.56-.16-2.7,3.81-.6,4,10.26,1.07,10.81-4.28,15.59-4.28,3.71,0,7.46-2.08,10.4-5.66.54-.67,1.35-1.27,1.74-.26a17,17,0,0,0,1,2.09c.39.72,4.21-.62,3.56-2-1.22-2.53.45-8.26,2.16-10,4.15-4.15,11.24-2.75,16.19-.28,5.49,2.75,9.86,8.2,12,11.3a8.56,8.56,0,0,0,3.4-3.48C106.46,59,101.78,53.46,95.76,50.46Z"/>
              <path class="cls-15" d="M39.33,54.77c-.32-1.57-4.37-.48-3.94,1a17.18,17.18,0,0,1,.12,6.56c-.27,2-1.1,2-1.92,1s-1.76-1.85-2.16-2.31-3.85,1.66-3.06,2.68a30,30,0,0,1,3.77,6.47,7.09,7.09,0,0,1-.22,3.57c-.41.82-.82,1.59-1.22,2.31.55.44,1.12.87,1.74,1.31a15.63,15.63,0,0,0,2.12,1.24C37.72,72.56,41.06,63.29,39.33,54.77Z"/>
              <path class="cls-16" d="M59.42,7.09c-1.19.43.36,4.19,1.36,3.83.82-.29,1.73-.6,2.61-.95,1.08-.43,2.42-.54,2.63.47,1.61,7.9,7.33,15.1,15.85,17.17.68,1.08,2.15,3.8,1.79,5.77s3.68,2.47,4,.73a14.94,14.94,0,0,0,.22-3.75c-.08-1.06.19-1.77,1.62-1.59,4.21.56,7.33,1.36,9.47,5.31,2.55,4.71-1.09,5.81-4.27,5.44a6.23,6.23,0,0,1-3.61-1.4c-.89-1.29-4.29.07-3.79,1.46.75,2.1,3.3,4.29,6.86,4.7a12.71,12.71,0,0,0,3.33-.05,3.8,3.8,0,0,1,2.47.88A19.52,19.52,0,0,0,103.57,49c.85.73,3.9-2,2.67-3.08-2.28-2-2.82-4.38-2.56-5.34,1.07-1.71,1.78-4.58-.5-8.81-3.6-6.65-9.56-7.36-14.82-8a29.83,29.83,0,0,1-7.78-1.63c-1.18-.48-.92-1.1,0-1.65a11.89,11.89,0,0,0,2.71-2.33c1-1.18-2.28-3.57-3.06-2.68a6.14,6.14,0,0,1-4.37,1.39c-4.56-.15-6.28-9.18-5.13-15.2-1.6-.33-3.17-.6-4.7-.82a6.61,6.61,0,0,1-.24,1.41C65.31,3.37,62.49,6,59.42,7.09Z"/>
              <path class="cls-17" d="M87.64,17.78c1.06,1.2,3.76-1.85,3.11-2.62a12.11,12.11,0,0,1-2.92-6.93,41.88,41.88,0,0,0-4.45-2.45A16.68,16.68,0,0,0,87.64,17.78Z"/>
              <path class="cls-18" d="M90.92,67c-.53-1-.4-1.36.58-2.3a37.63,37.63,0,0,1,3.37-2.82c1.1-.84-1.14-4-1.92-3.59s-1.73.87-2.55,1.3c-1,.53-1.68.39-1.83-.67a9.52,9.52,0,0,1-.11-1.71c.15-2.2-3.77-2.86-4-.53-.51,4.66,1.27,9.47,3,13,1.57-.27,3.11-.55,4.55-.83C91.67,68.25,91.29,67.64,90.92,67Z"/>
              <path class="cls-19" d="M95.57,17.39c-1.1-.55-3,3.08-1.82,3.64a9.92,9.92,0,0,0,7.36.41c-.83-1.28-1.73-2.55-2.72-3.79A3.9,3.9,0,0,1,95.57,17.39Z"/>
            </g>
            <path class="cls-20" d="M77.27,90.29c9.32-.91,22.81-9.14,24-17.89C105.67,82.63,90.62,96.27,77.27,90.29Z"/>
            <g class="cls-7">
              <path class="cls-21" d="M83,82.19c1.72-.89,3.35-1.74,4.94-2.49A50.84,50.84,0,0,0,100.71,71h0c-1.15,2.71-3.65,6-8.06,9.2-5.5,4-13.23,8.77-20.53,8.4.31.8.6,1.62.86,2.43,7.72,0,15.49-4.87,21.07-8.89,4.8-3.46,8.11-7.58,9.32-11.44a10.74,10.74,0,0,0-2.89-3.12c-.07.09-.13.18-.21.27-5.09,2.5-20.54,4.5-24.92,4.5a19.44,19.44,0,0,0-9.33,2.39,3.6,3.6,0,0,0,0,2.86,16.55,16.55,0,0,1,9.38-2.86,71.3,71.3,0,0,0,9.73-.93c-1.38.43-2.74.81-4,1.11A49.78,49.78,0,0,0,68,80.61c.41.62.83,1.31,1.25,2a47.18,47.18,0,0,1,12.38-5.41A99.53,99.53,0,0,0,94.6,73a50.78,50.78,0,0,1-7.72,4.57c-1.63.77-3.35,1.66-5,2.52-3.78,2-7.9,4.09-11.27,5q.52,1.07,1,2.19A70.1,70.1,0,0,0,83,82.19Z"/>
            </g>
          </g>
        </g>
      </g>
    </g>
  </g>
</svg>
